<svg xmlns="http://www.w3.org/2000/svg" viewBox="0 0 64 64" id="task-list"><g data-name="Play Radio"><path fill="#2bc936" d="M19,53v2a4.18,4.18,0,0,0,4.35,4H46a4.18,4.18,0,0,0,4.35-4V20A4.18,4.18,0,0,0,46,16H44"></path><path fill="#62bcdb" d="M13,48.65A4.33,4.33,0,0,0,17.31,53H39.69A4.33,4.33,0,0,0,44,48.65V14.52A3.63,3.63,0,0,0,43,12L37.26,6.05a3.39,3.39,0,0,0-2.44-1H17.31A4.39,4.39,0,0,0,13,9.47Z"></path><rect width="6.5" height="6.5" x="19" y="33.75" fill="#ffbc00" rx="2"></rect><path fill="#f26a69" d="M43.13,14h-4a3.49,3.49,0,0,1-3.49-3.49v-4a.87.87,0,0,1,1.49-.61l6.62,6.62A.87.87,0,0,1,43.13,14Z"></path><path d="M44 45.3a1 1 0 01-1-1V14.52a2.66 2.66 0 00-.73-1.83L36.54 6.74A2.36 2.36 0 0034.82 6H17.31A3.39 3.39 0 0014 9.47a1 1 0 01-2 0A5.39 5.39 0 0117.31 4H34.82A4.41 4.41 0 0138 5.35l5.73 6A4.6 4.6 0 0145 14.52V44.3A1 1 0 0144 45.3zM39.69 54H17.31A5.33 5.33 0 0112 48.65V15a1 1 0 012 0V48.65A3.33 3.33 0 0017.31 52H39.69A3.33 3.33 0 0043 48.65a1 1 0 012 0A5.33 5.33 0 0139.69 54z"></path><path d="M40,14.9a1,1,0,0,1-1-1,1,1,0,0,1,.08-.39,1,1,0,0,1,.21-.32,1,1,0,0,1,1.42,0,1,1,0,0,1,.21.32,1,1,0,0,1,.08.39,1.23,1.23,0,0,1,0,.19.7.7,0,0,1-.06.19.56.56,0,0,1-.09.17,1,1,0,0,1-.12.15A1,1,0,0,1,40,14.9Z"></path><path d="M40 14.9H39a4.52 4.52 0 01-4.47-4.56V5.1a1 1 0 012 0v5.24A2.52 2.52 0 0039 12.9h1a1 1 0 010 2zM46 60H23.35A5.18 5.18 0 0118 55V53a1 1 0 012 0v2a3.19 3.19 0 003.35 3H46a3.19 3.19 0 003.35-3V20A3.19 3.19 0 0046 17H44a1 1 0 010-2h2a5.18 5.18 0 015.35 5V55A5.18 5.18 0 0146 60zM21.63 26.29a1.05 1.05 0 01-.71-.29l-2.63-2.64a1 1 0 010-1.41 1 1 0 011.42 0l1.84 1.84 4.56-5.7a1 1 0 111.56 1.25l-5.26 6.57a1 1 0 01-.72.38zM38 21H31a1 1 0 010-2h7a1 1 0 010 2zM36 25H31a1 1 0 010-2h5a1 1 0 010 2z"></path><path d="M38 36H31a1 1 0 010-2h7a1 1 0 010 2zM36 40H31a1 1 0 010-2h5a1 1 0 010 2zM23.5 41.25H21a3 3 0 01-3-3v-2.5a3 3 0 013-3h2.5a3 3 0 013 3v2.5A3 3 0 0123.5 41.25zM21 34.75a1 1 0 00-1 1v2.5a1 1 0 001 1h2.5a1 1 0 001-1v-2.5a1 1 0 00-1-1z"></path></g></svg>